<svg xmlns="http://www.w3.org/2000/svg" viewBox="0 0 356.37 60.23"><title>Asset 12</title><g id="Layer_2" data-name="Layer 2"><g id="Layer_2-2" data-name="Layer 2"><rect width="356.37" height="60.23" style="fill:#c8242b"/><rect width="199.25" height="60.23" style="fill:#f33c40"/></g><g id="Layer_3" data-name="Layer 3"><path d="M28.21,23.76l4.2,11.17,4.19-11.17h3.27V38.34H37.36v-4.8l.25-6.43-4.3,11.23H31.5L27.2,27.12l.25,6.42v4.8H24.93V23.76Z" style="fill:#fff"/><path d="M56.14,34.94H50.49l-1.18,3.39H46.68l5.5-14.57h2.27L60,38.34H57.33Zm-4.93-2h4.22l-2.11-6Z" style="fill:#fff"/><path d="M66.73,38.34V23.76H71a7,7,0,0,1,2.67.49,5.91,5.91,0,0,1,2.07,1.4,6.35,6.35,0,0,1,1.35,2.19,8.1,8.1,0,0,1,.48,2.86v.72a8.15,8.15,0,0,1-.48,2.86,6.17,6.17,0,0,1-1.35,2.18,6,6,0,0,1-2.11,1.39,7.4,7.4,0,0,1-2.75.49Zm2.53-12.53V36.32h1.65A4.56,4.56,0,0,0,72.72,36,3.35,3.35,0,0,0,74,35a4.25,4.25,0,0,0,.78-1.54,7.5,7.5,0,0,0,.26-2.05v-.74a5.57,5.57,0,0,0-1-3.62,3.65,3.65,0,0,0-3-1.25Z" style="fill:#fff"/><path d="M93.75,31.83h-6v4.48h7v2H85.23V23.76h9.46v2H87.76v4h6Z" style="fill:#fff"/><path d="M123.56,34.73l2.24-11h2.51L125,38.34h-2.42L119.76,27.7l-2.83,10.64H114.5l-3.36-14.57h2.51l2.26,11,2.78-11h2.12Z" style="fill:#fff"/><path d="M137.95,38.34h-2.52V23.76h2.52Z" style="fill:#fff"/><path d="M156.1,25.81h-4.54V38.34H149V25.81h-4.5v-2H156.1Z" style="fill:#fff"/><path d="M174.08,38.34h-2.52V31.86H165v6.48h-2.53V23.76H165v6.07h6.52V23.76h2.52Z" style="fill:#fff"/><path d="M229.08,23.76h3V33.85a5,5,0,0,1-.37,2,4.25,4.25,0,0,1-1,1.48,4.48,4.48,0,0,1-1.55.93,5.71,5.71,0,0,1-1.94.32,6.77,6.77,0,0,1-2-.27,4.22,4.22,0,0,1-1.55-.83,3.77,3.77,0,0,1-1-1.4,5,5,0,0,1-.37-2h3a3.23,3.23,0,0,0,.13,1,1.57,1.57,0,0,0,.38.65,1.39,1.39,0,0,0,.59.35,2.65,2.65,0,0,0,.78.11,1.72,1.72,0,0,0,1.37-.59,2.5,2.5,0,0,0,.51-1.68Z" style="fill:#fff"/><path d="M248,35.33h-5.26l-1,3h-3.19L244,23.76h2.78l5.46,14.57H249Zm-4.45-2.43h3.64l-1.83-5.46Z" style="fill:#fff"/><path d="M264,34.72l3.3-11h3.34l-5.08,14.57h-3.13l-5.05-14.57h3.33Z" style="fill:#fff"/><path d="M285.4,35.33h-5.26l-1,3h-3.19l5.43-14.57h2.78l5.46,14.57h-3.19Zm-4.45-2.43h3.64l-1.83-5.46Z" style="fill:#fff"/><path d="M322.91,20.56a9.51,9.51,0,0,0-3.53,3.64c-1.36,3,2.78,6.2,3,6.34a.23.23,0,0,0,.34-.29,13.16,13.16,0,0,1-1.45-5c0-.72,1-1.54,2.1-2.41a12.13,12.13,0,0,0,2.74-2.75,4.41,4.41,0,0,0-.18-4.62.23.23,0,0,0-.41.18,4.87,4.87,0,0,1-.55,3.07A6.66,6.66,0,0,1,322.91,20.56Z" style="fill:#fff"/><path d="M328.34,21.58a.23.23,0,0,0-.22-.4c-.22.08-5.36,2.07-5.36,4.46A4.56,4.56,0,0,0,324,28.81a2.41,2.41,0,0,1,.43.65,3.26,3.26,0,0,1-.38,1.82.23.23,0,0,0,.34.29c.09-.06,2.16-1.53,1.79-3.29a4.36,4.36,0,0,0-.76-1.59c-.45-.67-.78-1.16-.28-2A17.4,17.4,0,0,1,328.34,21.58Z" style="fill:#fff"/><path d="M315,31.65a.81.81,0,0,0,.12.76c.56.77,2.53,1.2,5.56,1.2h0l1.29,0c4.84-.17,6.64-1.68,6.71-1.75a.23.23,0,0,0-.21-.39,33.33,33.33,0,0,1-7.1.63,15.61,15.61,0,0,1-4-.31,5.67,5.67,0,0,1,2.34-.84.23.23,0,0,0,0-.45C318.88,30.46,315.32,30.52,315,31.65Z" style="fill:#fff"/><path d="M331.16,30.09a4.78,4.78,0,0,0-2,.52.23.23,0,0,0,.11.43s2.13,0,2.32,1.22c.17,1-2,2.73-2.85,3.29a.23.23,0,0,0,.13.42h0c.2,0,4.93-1.08,4.43-3.84A2.13,2.13,0,0,0,331.16,30.09Z" style="fill:#fff"/><path d="M327.92,35.22a.23.23,0,0,0-.09-.23l-1.13-.79a.23.23,0,0,0-.19,0,22.29,22.29,0,0,1-2.92.51,20.25,20.25,0,0,1-2.21.12,8.09,8.09,0,0,1-3-.35s0-.06,0-.07a.58.58,0,0,1,.29-.22.23.23,0,0,0-.13-.44c-1.14.27-1.69.66-1.65,1.14.07.85,2.05,1.29,3.73,1.41l.77,0h0a32.5,32.5,0,0,0,6.39-.88A.23.23,0,0,0,327.92,35.22Z" style="fill:#fff"/><path d="M319.38,37.05a.23.23,0,0,0-.13-.42c-.15,0-1.49.06-1.58.92a.89.89,0,0,0,.22.69c.48.57,1.78.91,4,1l.78,0a11.92,11.92,0,0,0,4.73-.91.23.23,0,0,0,0-.4l-1.43-.87a.23.23,0,0,0-.17,0s-.92.19-2.29.38a7.38,7.38,0,0,1-1,.05,12,12,0,0,1-3.19-.37A.09.09,0,0,1,319.38,37.05Z" style="fill:#fff"/><path d="M321.33,41.92c6.37,0,9.79-1.14,10.45-1.85a.79.79,0,0,0,.24-.65,1,1,0,0,0-.44-.64.23.23,0,0,0-.3,0,.23.23,0,0,0,0,.3c0,.05.06.14-.05.26s-2.92,1-7.34,1.22c-.61,0-1.24,0-1.89,0-4,0-6.85-.54-7.24-.86A5.64,5.64,0,0,1,317,39a.23.23,0,0,0-.07-.45l-.26,0c-1.8.11-3.88.35-4,1.28a.94.94,0,0,0,.25.76c.49.55,1.88,1.27,8.37,1.27Z" style="fill:#fff"/><path d="M333,40.27a.23.23,0,0,0-.26.05s-1,1-3.85,1.6a37.32,37.32,0,0,1-6.15.33c-3,0-5.82-.12-5.85-.12a.23.23,0,0,0-.06.45,34.05,34.05,0,0,0,7.07.7,33,33,0,0,0,5.64-.47c3.34-.59,3.58-2.24,3.59-2.31A.23.23,0,0,0,333,40.27Z" style="fill:#fff"/></g></g></svg>