<svg xmlns="http://www.w3.org/2000/svg" viewBox="0 0 385.75 60.23"><title>Asset 17</title><g id="Layer_2" data-name="Layer 2"><g id="Layer_2-2" data-name="Layer 2"><rect width="385.75" height="60.23" style="fill:#512da8"/><rect width="199.25" height="60.23" style="fill:#9575cd"/></g><g id="Layer_3" data-name="Layer 3"><path d="M28.21,23.76l4.2,11.17,4.19-11.17h3.27V38.34H37.36v-4.8l.25-6.43-4.3,11.23H31.49L27.2,27.12l.25,6.42v4.8H24.93V23.76Z" style="fill:#fff"/><path d="M56.14,34.94H50.49l-1.18,3.39H46.68l5.5-14.57h2.27L60,38.34H57.33Zm-4.93-2h4.22l-2.11-6Z" style="fill:#fff"/><path d="M66.73,38.34V23.76H71a7,7,0,0,1,2.67.49,5.91,5.91,0,0,1,2.07,1.4,6.35,6.35,0,0,1,1.35,2.19,8.1,8.1,0,0,1,.48,2.86v.72a8.15,8.15,0,0,1-.48,2.86,6.17,6.17,0,0,1-1.35,2.18,6,6,0,0,1-2.11,1.39,7.4,7.4,0,0,1-2.75.49Zm2.53-12.53V36.32h1.65A4.56,4.56,0,0,0,72.72,36,3.35,3.35,0,0,0,74,35a4.25,4.25,0,0,0,.78-1.54,7.5,7.5,0,0,0,.26-2.05v-.74a5.57,5.57,0,0,0-1-3.62,3.65,3.65,0,0,0-3-1.25Z" style="fill:#fff"/><path d="M93.74,31.83h-6v4.48h7v2H85.23V23.76h9.46v2H87.76v4h6Z" style="fill:#fff"/><path d="M123.56,34.73l2.24-11h2.51L125,38.34h-2.42L119.76,27.7l-2.83,10.64h-2.43l-3.36-14.57h2.51l2.26,11,2.78-11h2.12Z" style="fill:#fff"/><path d="M137.95,38.34h-2.52V23.76h2.52Z" style="fill:#fff"/><path d="M156.1,25.81h-4.54V38.34H149V25.81h-4.5v-2H156.1Z" style="fill:#fff"/><path d="M174.08,38.34h-2.52V31.86H165v6.48h-2.53V23.76H165v6.07h6.52V23.76h2.52Z" style="fill:#fff"/><path d="M227.77,32.49l-1.56,1.68v4.16h-3V23.76h3v6.61l1.32-1.81,3.71-4.79h3.69l-5.18,6.48,5.33,8.1h-3.57Z" style="fill:#fff"/><path d="M253.3,31.38a9.28,9.28,0,0,1-.45,3,6.48,6.48,0,0,1-1.27,2.25,5.51,5.51,0,0,1-2,1.42,6.62,6.62,0,0,1-5,0,5.61,5.61,0,0,1-2-1.42,6.51,6.51,0,0,1-1.29-2.25,9.09,9.09,0,0,1-.46-3v-.64a9.21,9.21,0,0,1,.46-3,6.59,6.59,0,0,1,1.28-2.26,5.5,5.5,0,0,1,2-1.43,6.61,6.61,0,0,1,5,0,5.5,5.5,0,0,1,2,1.43,6.62,6.62,0,0,1,1.28,2.26,9.21,9.21,0,0,1,.46,3Zm-3-.66a6.14,6.14,0,0,0-.82-3.48,2.9,2.9,0,0,0-4.68,0,6.13,6.13,0,0,0-.82,3.48v.66a8.49,8.49,0,0,0,.22,2,4.48,4.48,0,0,0,.62,1.47,2.7,2.7,0,0,0,1,.9,2.9,2.9,0,0,0,1.35.31,2.64,2.64,0,0,0,2.33-1.2,6.24,6.24,0,0,0,.81-3.49Z" style="fill:#fff"/><path d="M271,26.2h-4.46V38.34h-3V26.2h-4.4V23.76H271Z" style="fill:#fff"/><path d="M280.17,35.93h6.38v2.41h-9.38V23.76h3Z" style="fill:#fff"/><path d="M296.57,38.34h-3V23.76h3Z" style="fill:#fff"/><path d="M316.31,38.34h-3l-5.85-9.59v9.59h-3V23.76h3l5.86,9.61V23.76h3Z" style="fill:#fff"/><path d="M351.94,22.39l-8.62,9.06v8.1l8.61-8.62,8.56-8.55Z" style="fill:#dbdbdb"/><path d="M343.32,39.55l8.61-8.62,8.56,8.62Z" style="fill:#fff"/><path d="M343.32,22.39h8.62l-8.62,9.06Z" style="fill:#fff"/></g></g></svg>