<svg xmlns="http://www.w3.org/2000/svg" viewBox="0 0 394.54 60.23"><title>Asset 15</title><g id="Layer_2" data-name="Layer 2"><g id="Layer_2-2" data-name="Layer 2"><rect width="394.54" height="60.23" style="fill:#569740"/><rect width="199.25" height="60.23" style="fill:#bfd63a"/></g><g id="Layer_3" data-name="Layer 3"><path d="M28.21,23.76l4.2,11.17,4.19-11.17h3.27V38.34H37.36v-4.8l.25-6.43-4.3,11.23H31.49L27.2,27.12l.25,6.42v4.8H24.93V23.76Z" style="fill:#fff"/><path d="M56.14,34.94H50.49l-1.18,3.39H46.68l5.51-14.57h2.27L60,38.34H57.33Zm-4.94-2h4.22l-2.11-6Z" style="fill:#fff"/><path d="M66.73,38.34V23.76H71a7,7,0,0,1,2.67.49,5.93,5.93,0,0,1,2.07,1.4,6.34,6.34,0,0,1,1.35,2.19,8.1,8.1,0,0,1,.48,2.86v.72a8.13,8.13,0,0,1-.48,2.86,6.17,6.17,0,0,1-1.35,2.18,6,6,0,0,1-2.11,1.39,7.4,7.4,0,0,1-2.75.49Zm2.53-12.53V36.32h1.65A4.56,4.56,0,0,0,72.73,36,3.35,3.35,0,0,0,74,35a4.25,4.25,0,0,0,.78-1.54,7.46,7.46,0,0,0,.26-2.05v-.74a5.57,5.57,0,0,0-1-3.62,3.66,3.66,0,0,0-3-1.25Z" style="fill:#fff"/><path d="M93.75,31.83h-6v4.48h7v2H85.23V23.76h9.46v2H87.76v4h6Z" style="fill:#fff"/><path d="M123.56,34.73l2.24-11h2.51L125,38.34h-2.42L119.76,27.7l-2.83,10.64H114.5l-3.36-14.57h2.51l2.26,11,2.78-11h2.12Z" style="fill:#fff"/><path d="M137.95,38.34h-2.52V23.76h2.52Z" style="fill:#fff"/><path d="M156.1,25.81h-4.54V38.34H149V25.81h-4.5v-2H156.1Z" style="fill:#fff"/><path d="M174.08,38.34h-2.52V31.86H165v6.48h-2.53V23.76H165v6.07h6.52V23.76h2.52Z" style="fill:#fff"/><path d="M230.76,34.51a2,2,0,0,0-.11-.69,1.34,1.34,0,0,0-.43-.57,3.89,3.89,0,0,0-.87-.51,13.76,13.76,0,0,0-1.44-.53A17.59,17.59,0,0,1,226,31.5a6.93,6.93,0,0,1-1.55-.95,4.2,4.2,0,0,1-1.05-1.26,3.43,3.43,0,0,1-.38-1.66,3.54,3.54,0,0,1,.4-1.67,3.76,3.76,0,0,1,1.11-1.29,5.47,5.47,0,0,1,1.7-.83,7.53,7.53,0,0,1,2.17-.3,6.84,6.84,0,0,1,2.2.34,5.06,5.06,0,0,1,1.69.94,4.15,4.15,0,0,1,1.08,1.43,4.26,4.26,0,0,1,.38,1.81h-3a2.43,2.43,0,0,0-.15-.85,1.73,1.73,0,0,0-.45-.67,2.07,2.07,0,0,0-.75-.44,3.27,3.27,0,0,0-1.06-.15,3.61,3.61,0,0,0-1,.13,2.1,2.1,0,0,0-.72.36,1.52,1.52,0,0,0-.43.54,1.54,1.54,0,0,0-.14.66,1.42,1.42,0,0,0,.74,1.21,8.31,8.31,0,0,0,2.16.91,14.19,14.19,0,0,1,2.1.82,6.22,6.22,0,0,1,1.51,1,3.89,3.89,0,0,1,.92,1.28,4,4,0,0,1,.31,1.61,3.77,3.77,0,0,1-.38,1.71,3.54,3.54,0,0,1-1.07,1.27,5,5,0,0,1-1.67.79,8,8,0,0,1-2.18.28,8.45,8.45,0,0,1-1.44-.12,6.93,6.93,0,0,1-1.38-.39,6,6,0,0,1-1.22-.65,4.46,4.46,0,0,1-1-.92,4.16,4.16,0,0,1-.65-1.21,4.54,4.54,0,0,1-.24-1.5h3a2.68,2.68,0,0,0,.21,1.12,1.9,1.9,0,0,0,.59.75,2.42,2.42,0,0,0,.91.42,5,5,0,0,0,1.18.13,3.64,3.64,0,0,0,1-.13,2.07,2.07,0,0,0,.71-.35,1.36,1.36,0,0,0,.42-.53A1.61,1.61,0,0,0,230.76,34.51Z" style="fill:#fff"/><path d="M243.92,33.2v5.13h-3V23.76h5.69a6.88,6.88,0,0,1,2.31.36,5,5,0,0,1,1.72,1,4.3,4.3,0,0,1,1.08,1.53,5,5,0,0,1,.37,1.93,4.75,4.75,0,0,1-.37,1.91A4,4,0,0,1,250.63,32a5,5,0,0,1-1.72.93,7.55,7.55,0,0,1-2.31.33Zm0-2.43h2.68a3.41,3.41,0,0,0,1.11-.16,2,2,0,0,0,.76-.45,1.75,1.75,0,0,0,.44-.69,2.64,2.64,0,0,0,.14-.87,3,3,0,0,0-.14-.91,2.16,2.16,0,0,0-.44-.77,2.1,2.1,0,0,0-.76-.54,2.79,2.79,0,0,0-1.11-.2h-2.68Z" style="fill:#fff"/><path d="M264.64,33h-2.39v5.33h-3V23.76h5.42a8.26,8.26,0,0,1,2.26.29,4.74,4.74,0,0,1,1.69.84,3.69,3.69,0,0,1,1.06,1.38,4.6,4.6,0,0,1,.37,1.9,5.27,5.27,0,0,1-.18,1.44,3.74,3.74,0,0,1-1.34,2,5.41,5.41,0,0,1-1.08.64l3.15,6v.14h-3.22Zm-2.39-2.43h2.42a3.15,3.15,0,0,0,1-.16,2,2,0,0,0,.74-.44,1.83,1.83,0,0,0,.45-.68,2.47,2.47,0,0,0,.15-.89,2.2,2.2,0,0,0-.59-1.62,2.43,2.43,0,0,0-1.8-.59h-2.41Z" style="fill:#fff"/><path d="M280.62,38.34h-3V23.76h3Z" style="fill:#fff"/><path d="M300.36,38.34h-3l-5.85-9.59v9.59h-3V23.76h3l5.86,9.61V23.76h3Z" style="fill:#fff"/><path d="M319.62,36.5a4.88,4.88,0,0,1-.71.67,5.36,5.36,0,0,1-1.13.66,8.36,8.36,0,0,1-1.61.51,9.9,9.9,0,0,1-2.13.21,6.9,6.9,0,0,1-2.58-.47,5.4,5.4,0,0,1-2-1.37,6.2,6.2,0,0,1-1.29-2.21,9.13,9.13,0,0,1-.46-3v-.86a9.57,9.57,0,0,1,.44-3,6.28,6.28,0,0,1,1.23-2.22A5.2,5.2,0,0,1,311.32,24a6.48,6.48,0,0,1,2.51-.47,7.59,7.59,0,0,1,2.46.36,4.83,4.83,0,0,1,1.73,1,4.53,4.53,0,0,1,1.09,1.53,6.74,6.74,0,0,1,.51,2H316.7a4.26,4.26,0,0,0-.28-1,2.26,2.26,0,0,0-.52-.76,2.22,2.22,0,0,0-.82-.49,3.5,3.5,0,0,0-1.16-.17,2.66,2.66,0,0,0-2.34,1.17,6.12,6.12,0,0,0-.8,3.46v.88a5.77,5.77,0,0,0,.87,3.46,3,3,0,0,0,2.55,1.17,5.52,5.52,0,0,0,.94-.07,4,4,0,0,0,.69-.18,2.35,2.35,0,0,0,.48-.23,2,2,0,0,0,.31-.25V32.89h-2.73V30.68h5.74Z" style="fill:#fff"/><path d="M351.76,22.06a9.85,9.85,0,0,0-4.93,10.17c7-8.3,17.48-7.9,17.48-7.9s-14.85,5.09-19.22,15.31c-.34.81,1.62,1.86,2.06.9a23.91,23.91,0,0,1,3.2-5c2.75,1,7.5,2.22,10.86-.15,4.47-3.15,4-10.12,10.4-13.52C373.12,21.11,359.12,17.79,351.76,22.06Z" style="fill:#fff"/></g></g></svg>