<svg xmlns="http://www.w3.org/2000/svg" viewBox="0 0 343.72 60.23"><title>Asset 16</title><g id="Layer_2" data-name="Layer 2"><g id="Layer_2-2" data-name="Layer 2"><rect width="343.72" height="60.23" style="fill:#569740"/><rect width="199.25" height="60.23" style="fill:#bfd63a"/></g><g id="Layer_3" data-name="Layer 3"><path d="M28.21,23.76l4.2,11.17,4.19-11.17h3.27V38.34H37.36v-4.8l.25-6.43-4.3,11.23H31.5L27.2,27.12l.25,6.42v4.8H24.93V23.76Z" style="fill:#fff"/><path d="M56.14,34.94H50.49l-1.18,3.39H46.68l5.5-14.57h2.27L60,38.34H57.33Zm-4.93-2h4.22l-2.11-6Z" style="fill:#fff"/><path d="M66.73,38.34V23.76H71a7,7,0,0,1,2.67.49,5.91,5.91,0,0,1,2.07,1.4,6.35,6.35,0,0,1,1.35,2.19,8.1,8.1,0,0,1,.48,2.86v.72a8.15,8.15,0,0,1-.48,2.86,6.17,6.17,0,0,1-1.35,2.18,6,6,0,0,1-2.11,1.39,7.4,7.4,0,0,1-2.75.49Zm2.53-12.53V36.32h1.65A4.56,4.56,0,0,0,72.72,36,3.35,3.35,0,0,0,74,35a4.25,4.25,0,0,0,.78-1.54,7.5,7.5,0,0,0,.26-2.05v-.74a5.57,5.57,0,0,0-1-3.62,3.65,3.65,0,0,0-3-1.25Z" style="fill:#fff"/><path d="M93.75,31.83h-6v4.48h7v2H85.23V23.76h9.46v2H87.76v4h6Z" style="fill:#fff"/><path d="M123.56,34.73l2.24-11h2.51L125,38.34h-2.42L119.76,27.7l-2.83,10.64H114.5l-3.36-14.57h2.51l2.26,11,2.78-11h2.12Z" style="fill:#fff"/><path d="M137.95,38.34h-2.52V23.76h2.52Z" style="fill:#fff"/><path d="M156.1,25.81h-4.54V38.34H149V25.81h-4.5v-2H156.1Z" style="fill:#fff"/><path d="M174.08,38.34h-2.52V31.86H165v6.48h-2.53V23.76H165v6.07h6.52V23.76h2.52Z" style="fill:#fff"/><path d="M232,32h-5.77v3.9H233v2.41h-9.77V23.76H233V26.2h-6.75v3.47H232Z" style="fill:#fff"/><path d="M242.85,35.93h6.38v2.41h-9.38V23.76h3Z" style="fill:#fff"/><path d="M260,23.76l3.74,10.57,3.72-10.57h3.94V38.34h-3v-4l.3-6.88-3.93,10.86h-2.06l-3.92-10.85.3,6.87v4h-3V23.76Z" style="fill:#fff"/><path d="M307.18,30.58l-8,8h16Z" style="fill:#e0e0e0"/><path d="M312.08,34.55l3.54,3.54V31Z" style="fill:#f2f2f2"/><path d="M306.72,30.11l-8-8v16Z" style="fill:#c6c6c6"/><path d="M315.62,29.18V21.67h-7.51Z" style="fill:#e0e0e0"/><path d="M311.64,26.12l4,4-4,4-4-4ZM299.2,21.67l3.68,3.68h8l-3.68-3.68Z" style="fill:#fff"/><path d="M307.18,29.65,310.83,26h-7.3Z" style="fill:#f2f2f2"/></g></g></svg>