<svg xmlns="http://www.w3.org/2000/svg" viewBox="0 0 375.57 60.23"><title>Asset 18</title><g id="Layer_2" data-name="Layer 2"><g id="Layer_2-2" data-name="Layer 2"><rect width="375.57" height="60.23" style="fill:#6a1b9a"/><rect width="199.25" height="60.23" style="fill:#ab47bc"/><path id="path4237" d="M339.42,42.89a23.6,23.6,0,0,0,3.36-.06,54.23,54.23,0,0,0,5.85-.83,39.85,39.85,0,0,0,4.07-1.09c1.48-.55,2.29-1,2.66-1.67a.81.81,0,0,0-.57-.9c-1.75-.73-3.78-.6-7.79-.69-4.45-.15-5.93-.9-6.72-1.5s-.38-2.29,2.87-3.78a70.52,70.52,0,0,1,8-2.25c-2.16-1.07-6.18-2.94-7-3.34s-1.88-.89-2.14-1.54.67-1.16,1.21-1.31a26.38,26.38,0,0,1,6.37-.84,5.6,5.6,0,0,0,1.29-.09c1.54-.25,2.55-1.31,2.13-3s-2.37-2.7-4.27-2.35-6.09,1.58-6.09,1.58c5.32,0,6.21,0,6.61.6.23.33-.11.78-1.53,1s-4.76.56-4.76.56c-3.08.18-5.25.2-5.9,1.57-.43.9.45,1.7.84,2.19a16.54,16.54,0,0,0,5.49,3.5c.57.27,2.24.78,2.24.78-4.91-.27-8.45,1.24-10.52,3-2.35,2.17-1.31,4.76,3.5,6.36a16.57,16.57,0,0,0,8.49,1c2.5-.13,2.89-.05,2.92.15s-2.77,1-3.54,1.23C344.56,41.75,339.45,42.89,339.42,42.89Z" style="fill:#fff"/></g><g id="Layer_3" data-name="Layer 3"><path d="M24.93,38.34V23.76h5A8.77,8.77,0,0,1,32,24a4.48,4.48,0,0,1,1.59.72,3.14,3.14,0,0,1,1,1.23A4.18,4.18,0,0,1,35,27.71a3.15,3.15,0,0,1-.54,1.8,3.48,3.48,0,0,1-1.58,1.24,3.49,3.49,0,0,1,1.1.5,3.06,3.06,0,0,1,.77.77,3.24,3.24,0,0,1,.46,1,4,4,0,0,1,.15,1.1A4.6,4.6,0,0,1,35,35.93a3.48,3.48,0,0,1-1,1.33,4.41,4.41,0,0,1-1.59.81,7.62,7.62,0,0,1-2.12.27Zm2.53-8.44h2.48a2.87,2.87,0,0,0,1.85-.54,1.84,1.84,0,0,0,.67-1.52,1.86,1.86,0,0,0-.62-1.56,3.11,3.11,0,0,0-1.92-.48H27.46Zm0,1.86v4.55h2.81a3.43,3.43,0,0,0,1.1-.16,2.18,2.18,0,0,0,.8-.46,1.87,1.87,0,0,0,.48-.71,2.49,2.49,0,0,0,.16-.91,2.1,2.1,0,0,0-2.42-2.32Z" style="fill:#fff"/><path d="M53.63,23.76v9.75a5.27,5.27,0,0,1-.43,2.19A4.43,4.43,0,0,1,52,37.28a5,5,0,0,1-1.73.95,7,7,0,0,1-2.12.32A7.14,7.14,0,0,1,46,38.22a4.84,4.84,0,0,1-1.73-.95,4.32,4.32,0,0,1-1.14-1.57,5.44,5.44,0,0,1-.41-2.19V23.76h2.52v9.75a3.94,3.94,0,0,0,.21,1.35,2.44,2.44,0,0,0,.59.94,2.32,2.32,0,0,0,.92.55,3.9,3.9,0,0,0,1.21.18,4,4,0,0,0,1.22-.18,2.28,2.28,0,0,0,.92-.55,2.47,2.47,0,0,0,.58-.94,4,4,0,0,0,.21-1.35V23.76Z" style="fill:#fff"/><path d="M64.11,38.34H61.58V23.76h2.52Z" style="fill:#fff"/><path d="M74.86,36.32h6.62v2H72.32V23.76h2.53Z" style="fill:#fff"/><path d="M88.52,38.34V23.76h4.3a7,7,0,0,1,2.67.49,5.92,5.92,0,0,1,2.07,1.4,6.35,6.35,0,0,1,1.35,2.19,8.1,8.1,0,0,1,.48,2.86v.72a8.14,8.14,0,0,1-.48,2.86,6.17,6.17,0,0,1-1.35,2.18,6,6,0,0,1-2.11,1.39,7.4,7.4,0,0,1-2.75.49ZM91.05,25.8V36.32H92.7A4.56,4.56,0,0,0,94.52,36a3.35,3.35,0,0,0,1.3-1,4.25,4.25,0,0,0,.78-1.54,7.48,7.48,0,0,0,.26-2.05v-.74a5.57,5.57,0,0,0-1-3.62,3.66,3.66,0,0,0-3-1.25Z" style="fill:#fff"/><path d="M125.63,32.16h-5.87v6.18h-2.53V23.76h9.26v2h-6.73v4.33h5.87Z" style="fill:#fff"/><path d="M145.23,31.43a9.45,9.45,0,0,1-.44,3,6.49,6.49,0,0,1-1.23,2.23,5.32,5.32,0,0,1-1.9,1.41,6.4,6.4,0,0,1-4.91,0,5.46,5.46,0,0,1-1.92-1.41,6.46,6.46,0,0,1-1.25-2.23,9.27,9.27,0,0,1-.45-3v-.74a9.31,9.31,0,0,1,.45-3,6.62,6.62,0,0,1,1.24-2.24,5.35,5.35,0,0,1,1.91-1.41,6.42,6.42,0,0,1,4.92,0,5.34,5.34,0,0,1,1.91,1.41,6.49,6.49,0,0,1,1.23,2.24,9.5,9.5,0,0,1,.44,3Zm-2.53-.76a8.9,8.9,0,0,0-.23-2.16,4.6,4.6,0,0,0-.69-1.57,3,3,0,0,0-1.11-1,3.3,3.3,0,0,0-1.49-.33,3.22,3.22,0,0,0-1.46.33,3,3,0,0,0-1.11,1,4.67,4.67,0,0,0-.7,1.57,8.55,8.55,0,0,0-.25,2.16v.76a8.6,8.6,0,0,0,.25,2.16,4.66,4.66,0,0,0,.71,1.58,3,3,0,0,0,1.12,1,3.25,3.25,0,0,0,1.47.33,3,3,0,0,0,2.59-1.28,6.46,6.46,0,0,0,.91-3.74Z" style="fill:#fff"/><path d="M158.21,32.72h-2.82v5.62h-2.53V23.76H158a8,8,0,0,1,2.23.29,4.6,4.6,0,0,1,1.66.84,3.57,3.57,0,0,1,1,1.38,4.81,4.81,0,0,1,.35,1.9,4.1,4.1,0,0,1-.71,2.45,4.49,4.49,0,0,1-2,1.52l3.27,6.08v.13h-2.71Zm-2.82-2H158a3.58,3.58,0,0,0,1.19-.18A2.37,2.37,0,0,0,160,30a2,2,0,0,0,.51-.76,2.68,2.68,0,0,0,.17-1,3,3,0,0,0-.16-1,2,2,0,0,0-.49-.78,2.19,2.19,0,0,0-.85-.5A3.86,3.86,0,0,0,158,25.8h-2.59Z" style="fill:#fff"/><path d="M232,32h-5.77v3.9H233v2.41h-9.77V23.76H233V26.2h-6.75v3.47H232Z" style="fill:#fff"/><path d="M243.77,23.76l3.74,10.57,3.72-10.57h3.94V38.34h-3v-4l.3-6.88-3.93,10.86h-2.06l-3.92-10.85.3,6.87v4h-3V23.76Z" style="fill:#fff"/><path d="M271.13,35.33h-5.27l-1,3h-3.19l5.42-14.57h2.78l5.46,14.57h-3.19Zm-4.45-2.43h3.64l-1.83-5.46Z" style="fill:#fff"/><path d="M293.24,33.48a6,6,0,0,1-.5,2,4.75,4.75,0,0,1-1.16,1.6,5.32,5.32,0,0,1-1.8,1,7.16,7.16,0,0,1-2.41.38,6.26,6.26,0,0,1-2.52-.49,5.14,5.14,0,0,1-1.89-1.4,6.34,6.34,0,0,1-1.19-2.21,9.49,9.49,0,0,1-.42-2.91v-1a9.25,9.25,0,0,1,.43-2.91A6.44,6.44,0,0,1,283,25.45a5.29,5.29,0,0,1,1.91-1.4,6.19,6.19,0,0,1,2.5-.49,7,7,0,0,1,2.41.39A5.18,5.18,0,0,1,291.6,25a4.87,4.87,0,0,1,1.14,1.63,6.84,6.84,0,0,1,.52,2.06h-3a4.56,4.56,0,0,0-.23-1.15,2.25,2.25,0,0,0-.51-.84,2.09,2.09,0,0,0-.85-.52,4,4,0,0,0-1.26-.18,2.55,2.55,0,0,0-2.27,1.11,6.23,6.23,0,0,0-.75,3.43v1a10.53,10.53,0,0,0,.17,2,4.19,4.19,0,0,0,.52,1.42,2.28,2.28,0,0,0,.92.86,3,3,0,0,0,1.37.29,4.17,4.17,0,0,0,1.23-.16,2.08,2.08,0,0,0,1.4-1.3,4,4,0,0,0,.24-1.14Z" style="fill:#fff"/><path d="M307.88,34.51a2,2,0,0,0-.11-.69,1.34,1.34,0,0,0-.43-.57,3.91,3.91,0,0,0-.87-.51,13.8,13.8,0,0,0-1.44-.53,17.59,17.59,0,0,1-1.89-.72,6.92,6.92,0,0,1-1.55-.95,4.21,4.21,0,0,1-1.05-1.26,3.43,3.43,0,0,1-.39-1.66,3.54,3.54,0,0,1,.4-1.67,3.76,3.76,0,0,1,1.11-1.29,5.46,5.46,0,0,1,1.7-.83,7.53,7.53,0,0,1,2.17-.3,6.84,6.84,0,0,1,2.2.34,5.06,5.06,0,0,1,1.69.94,4.15,4.15,0,0,1,1.08,1.43,4.27,4.27,0,0,1,.38,1.81h-3a2.43,2.43,0,0,0-.15-.85,1.74,1.74,0,0,0-.45-.67,2.08,2.08,0,0,0-.75-.44,3.28,3.28,0,0,0-1.06-.15,3.61,3.61,0,0,0-1,.13,2.09,2.09,0,0,0-.72.36,1.52,1.52,0,0,0-.43.54,1.54,1.54,0,0,0-.15.66,1.42,1.42,0,0,0,.74,1.21,8.3,8.3,0,0,0,2.16.91,14.21,14.21,0,0,1,2.1.82,6.24,6.24,0,0,1,1.51,1,3.89,3.89,0,0,1,.92,1.28,4,4,0,0,1,.31,1.61,3.78,3.78,0,0,1-.38,1.71,3.54,3.54,0,0,1-1.07,1.27,5,5,0,0,1-1.67.79,8,8,0,0,1-2.18.28,8.45,8.45,0,0,1-1.44-.12,6.92,6.92,0,0,1-1.38-.39,6,6,0,0,1-1.22-.65,4.48,4.48,0,0,1-1-.92,4.15,4.15,0,0,1-.65-1.21,4.53,4.53,0,0,1-.24-1.5h3a2.68,2.68,0,0,0,.21,1.12,1.91,1.91,0,0,0,.59.75,2.42,2.42,0,0,0,.91.42,5,5,0,0,0,1.18.13,3.64,3.64,0,0,0,1-.13,2.07,2.07,0,0,0,.71-.35,1.37,1.37,0,0,0,.42-.53A1.61,1.61,0,0,0,307.88,34.51Z" style="fill:#fff"/></g></g></svg>