<svg xmlns="http://www.w3.org/2000/svg" viewBox="0 0 334.29 60.23"><title>Asset 26</title><g id="Layer_2" data-name="Layer 2"><g id="Layer_2-2" data-name="Layer 2"><rect width="334.29" height="60.23" style="fill:#212121"/><rect width="199.25" height="60.23" style="fill:#9e9e9e"/></g><g id="Layer_3" data-name="Layer 3"><path d="M29.1,38.34V23.76h5a8.75,8.75,0,0,1,2.12.24,4.47,4.47,0,0,1,1.59.72,3.14,3.14,0,0,1,1,1.23,4.18,4.18,0,0,1,.35,1.77,3.14,3.14,0,0,1-.54,1.8A3.47,3.47,0,0,1,37,30.75a3.5,3.5,0,0,1,1.1.5,3.05,3.05,0,0,1,.77.77,3.24,3.24,0,0,1,.46,1,4,4,0,0,1,.15,1.1,4.6,4.6,0,0,1-.35,1.85,3.48,3.48,0,0,1-1,1.33,4.41,4.41,0,0,1-1.59.81,7.62,7.62,0,0,1-2.12.27Zm2.53-8.44h2.48A2.88,2.88,0,0,0,36,29.36a1.84,1.84,0,0,0,.67-1.52A1.86,1.86,0,0,0,36,26.29a3.11,3.11,0,0,0-1.92-.48H31.63Zm0,1.86v4.55h2.81a3.42,3.42,0,0,0,1.1-.16,2.18,2.18,0,0,0,.8-.46,1.87,1.87,0,0,0,.48-.71,2.49,2.49,0,0,0,.16-.91,2.1,2.1,0,0,0-2.42-2.32Z" style="fill:#fff"/><path d="M57.79,23.76v9.75a5.27,5.27,0,0,1-.43,2.19,4.42,4.42,0,0,1-1.17,1.57,4.94,4.94,0,0,1-1.73.95,7,7,0,0,1-2.12.32,7.16,7.16,0,0,1-2.17-.32,4.83,4.83,0,0,1-1.73-.95,4.32,4.32,0,0,1-1.14-1.57,5.44,5.44,0,0,1-.41-2.19V23.76h2.52v9.75a3.94,3.94,0,0,0,.21,1.35,2.43,2.43,0,0,0,.59.94,2.33,2.33,0,0,0,.92.55,3.91,3.91,0,0,0,1.21.17,4,4,0,0,0,1.22-.17,2.28,2.28,0,0,0,.92-.55,2.47,2.47,0,0,0,.58-.94,4,4,0,0,0,.21-1.35V23.76Z" style="fill:#fff"/><path d="M68.27,38.34H65.75V23.76h2.52Z" style="fill:#fff"/><path d="M79,36.32h6.62v2H76.49V23.76H79Z" style="fill:#fff"/><path d="M92.69,38.34V23.76H97a7,7,0,0,1,2.67.49,5.92,5.92,0,0,1,2.07,1.4,6.34,6.34,0,0,1,1.35,2.19,8.1,8.1,0,0,1,.48,2.86v.72a8.13,8.13,0,0,1-.48,2.86,6.17,6.17,0,0,1-1.35,2.18,6,6,0,0,1-2.11,1.39,7.41,7.41,0,0,1-2.75.49Zm2.53-12.53V36.32h1.65A4.56,4.56,0,0,0,98.68,36a3.36,3.36,0,0,0,1.3-1,4.25,4.25,0,0,0,.78-1.54,7.47,7.47,0,0,0,.26-2.05v-.74a5.57,5.57,0,0,0-1-3.62,3.66,3.66,0,0,0-3-1.25Z" style="fill:#fff"/><path d="M129.79,32.16h-5.87v6.18h-2.53V23.76h9.26v2h-6.73v4.33h5.87Z" style="fill:#fff"/><path d="M149.39,31.43a9.45,9.45,0,0,1-.44,3,6.49,6.49,0,0,1-1.23,2.23,5.32,5.32,0,0,1-1.9,1.41,6.4,6.4,0,0,1-4.91,0A5.45,5.45,0,0,1,139,36.64a6.47,6.47,0,0,1-1.25-2.23,9.27,9.27,0,0,1-.45-3v-.74a9.32,9.32,0,0,1,.45-3A6.62,6.62,0,0,1,139,25.46a5.36,5.36,0,0,1,1.91-1.41,6.42,6.42,0,0,1,4.92,0,5.34,5.34,0,0,1,1.91,1.41A6.49,6.49,0,0,1,149,27.71a9.5,9.5,0,0,1,.44,3Zm-2.53-.76a8.9,8.9,0,0,0-.23-2.16,4.61,4.61,0,0,0-.69-1.57,3,3,0,0,0-1.11-1,3.3,3.3,0,0,0-1.49-.33,3.22,3.22,0,0,0-1.46.33,3,3,0,0,0-1.11,1,4.68,4.68,0,0,0-.7,1.57,8.55,8.55,0,0,0-.25,2.16v.76a8.6,8.6,0,0,0,.25,2.16,4.66,4.66,0,0,0,.71,1.58,3,3,0,0,0,1.12,1,3.25,3.25,0,0,0,1.47.33A3,3,0,0,0,146,35.17a6.46,6.46,0,0,0,.91-3.74Z" style="fill:#fff"/><path d="M162.37,32.72h-2.82v5.62H157V23.76h5.13a8,8,0,0,1,2.23.29,4.6,4.6,0,0,1,1.66.84,3.57,3.57,0,0,1,1,1.38,4.82,4.82,0,0,1,.35,1.9,4.1,4.1,0,0,1-.71,2.45,4.49,4.49,0,0,1-2,1.52L168,38.21v.13H165.3Zm-2.82-2h2.6a3.58,3.58,0,0,0,1.19-.18,2.37,2.37,0,0,0,.85-.5,2,2,0,0,0,.51-.76,2.68,2.68,0,0,0,.17-1,3,3,0,0,0-.16-1,2,2,0,0,0-.49-.78,2.19,2.19,0,0,0-.85-.5,3.88,3.88,0,0,0-1.24-.17h-2.59Z" style="fill:#fff"/><path d="M234.65,33.48a6,6,0,0,1-.5,2,4.75,4.75,0,0,1-1.16,1.6,5.31,5.31,0,0,1-1.8,1,7.15,7.15,0,0,1-2.41.38,6.26,6.26,0,0,1-2.52-.49,5.15,5.15,0,0,1-1.89-1.4,6.34,6.34,0,0,1-1.19-2.21,9.49,9.49,0,0,1-.42-2.91v-1a9.26,9.26,0,0,1,.43-2.91,6.44,6.44,0,0,1,1.22-2.21,5.28,5.28,0,0,1,1.91-1.4,6.18,6.18,0,0,1,2.5-.49,7,7,0,0,1,2.41.38A5.18,5.18,0,0,1,233,25a4.87,4.87,0,0,1,1.14,1.63,6.84,6.84,0,0,1,.52,2.06h-3a4.55,4.55,0,0,0-.23-1.15,2.25,2.25,0,0,0-.51-.84,2.08,2.08,0,0,0-.85-.52,4,4,0,0,0-1.26-.18,2.55,2.55,0,0,0-2.27,1.11,6.23,6.23,0,0,0-.75,3.43v1a10.53,10.53,0,0,0,.17,2,4.19,4.19,0,0,0,.52,1.42,2.28,2.28,0,0,0,.92.86,3,3,0,0,0,1.37.29,4.17,4.17,0,0,0,1.23-.16,2.08,2.08,0,0,0,1.4-1.3,4,4,0,0,0,.24-1.14Z" style="fill:#fff"/><path d="M244.73,35.93h6.38v2.41h-9.38V23.76h3Z" style="fill:#fff"/><path d="M261.12,38.34h-3V23.76h3Z" style="fill:#fff"/></g><g id="Layer_6" data-name="Layer 6"><rect x="299.7" y="36.55" width="11.26" height="2.81" style="fill:#fff"/><polygon points="299.2 30.93 290.78 39.36 287.96 36.55 293.59 30.93 287.96 25.31 290.78 22.49 299.2 30.93" style="fill:#fff"/></g></g></svg>