<svg xmlns="http://www.w3.org/2000/svg" viewBox="0 0 376.64 60.23"><defs><style>.cls-1{fill:#c8242b;}.cls-2{fill:#f33c40;}.cls-3{font-size:20.5px;font-family:Roboto-Bold, Roboto;font-weight:700;}.cls-3,.cls-6{fill:#fff;}.cls-4{letter-spacing:-0.03em;}.cls-5{fill:#939393;}</style></defs><title>Asset 1</title><g id="Layer_2" data-name="Layer 2"><g id="Layer_2-2" data-name="Layer 2"><rect class="cls-1" width="376.64" height="60.23"/><rect class="cls-2" width="199.25" height="60.23"/></g><g id="Layer_3" data-name="Layer 3"><text class="cls-3" transform="translate(23.45 38.34)"><tspan xml:space="preserve">M A D E   W I</tspan><tspan class="cls-4" x="116.24" y="0" xml:space="preserve"> T</tspan><tspan x="132.83" y="0" xml:space="preserve"> H</tspan></text><text class="cls-3" transform="translate(220.78 38.34)">S C A L A</text><path class="cls-5" d="M332.38,33.93v2.25c0,.38,8.17,1,13.49,2.25,2.57-.6,4.48-1.33,4.48-2.25V33.93c0-.91-1.91-1.65-4.48-2.25-5.32,1.23-13.49,1.87-13.49,2.25"/><path class="cls-5" d="M332.38,24.95v2.25c0,.38,8.17,1,13.49,2.25,2.57-.6,4.48-1.33,4.48-2.25V24.95c0-.91-1.91-1.65-4.48-2.25-5.32,1.23-13.49,1.87-13.49,2.25"/><path class="cls-6" d="M332.38,29.44v6.74c0-.56,18-1.68,18-4.49V24.95c0,2.81-18,3.93-18,4.49"/><path class="cls-6" d="M332.38,20.45v6.74c0-.56,18-1.68,18-4.49V16c0,2.81-18,3.93-18,4.49"/><path class="cls-6" d="M332.38,38.42v6.74c0-.56,18-1.68,18-4.49V33.93c0,2.81-18,3.93-18,4.49"/></g></g></svg>