<svg xmlns="http://www.w3.org/2000/svg" viewBox="0 0 375.57 60.23"><defs><style>.cls-1{fill:#c8242b;}.cls-2{fill:#f33c40;}.cls-3{fill:#fff;}.cls-4{fill:#939393;}</style></defs><title>Asset 4</title><g id="Layer_2" data-name="Layer 2"><g id="Layer_2-2" data-name="Layer 2"><rect class="cls-1" width="375.57" height="60.23"/><rect class="cls-2" width="199.25" height="60.23"/></g><g id="Layer_3" data-name="Layer 3"><path class="cls-3" d="M28.21,23.76l4.2,11.17,4.19-11.17h3.27V38.34H37.36v-4.8l.25-6.43-4.3,11.23H31.49L27.2,27.12l.25,6.42v4.8H24.93V23.76Z"/><path class="cls-3" d="M56.14,34.94H50.49l-1.18,3.39H46.68l5.51-14.57h2.27L60,38.34H57.33Zm-4.94-2h4.22l-2.11-6Z"/><path class="cls-3" d="M66.73,38.34V23.76H71a7,7,0,0,1,2.67.49,5.92,5.92,0,0,1,2.07,1.4,6.35,6.35,0,0,1,1.35,2.19,8.1,8.1,0,0,1,.48,2.86v.72a8.14,8.14,0,0,1-.48,2.86,6.17,6.17,0,0,1-1.35,2.18,6,6,0,0,1-2.11,1.39,7.4,7.4,0,0,1-2.75.49ZM69.26,25.8V36.32h1.65A4.56,4.56,0,0,0,72.72,36,3.35,3.35,0,0,0,74,35a4.25,4.25,0,0,0,.78-1.54,7.48,7.48,0,0,0,.26-2.05v-.74a5.57,5.57,0,0,0-1-3.62,3.66,3.66,0,0,0-3-1.25Z"/><path class="cls-3" d="M93.75,31.83h-6v4.48h7v2H85.23V23.76h9.46v2H87.76v4h6Z"/><path class="cls-3" d="M123.56,34.73l2.24-11h2.51L125,38.34h-2.42L119.76,27.7l-2.83,10.64H114.5l-3.36-14.57h2.51l2.26,11,2.78-11h2.12Z"/><path class="cls-3" d="M137.95,38.34h-2.52V23.76h2.52Z"/><path class="cls-3" d="M156.1,25.8h-4.54V38.34H149V25.8h-4.5v-2H156.1Z"/><path class="cls-3" d="M174.08,38.34h-2.52V31.86H165v6.48h-2.53V23.76H165v6.07h6.52V23.76h2.52Z"/><path class="cls-3" d="M230.76,34.51a2,2,0,0,0-.11-.69,1.34,1.34,0,0,0-.43-.57,3.89,3.89,0,0,0-.87-.51,13.76,13.76,0,0,0-1.44-.53A17.59,17.59,0,0,1,226,31.5a6.93,6.93,0,0,1-1.55-.95,4.2,4.2,0,0,1-1.05-1.26,3.43,3.43,0,0,1-.38-1.66,3.54,3.54,0,0,1,.4-1.67,3.76,3.76,0,0,1,1.11-1.29,5.47,5.47,0,0,1,1.7-.83,7.53,7.53,0,0,1,2.17-.3,6.84,6.84,0,0,1,2.2.34,5.06,5.06,0,0,1,1.69.94,4.15,4.15,0,0,1,1.08,1.43,4.26,4.26,0,0,1,.38,1.81h-3a2.43,2.43,0,0,0-.15-.85,1.73,1.73,0,0,0-.45-.67,2.07,2.07,0,0,0-.75-.44,3.27,3.27,0,0,0-1.06-.15,3.61,3.61,0,0,0-1,.13,2.1,2.1,0,0,0-.72.36,1.52,1.52,0,0,0-.43.54,1.54,1.54,0,0,0-.14.66,1.42,1.42,0,0,0,.74,1.21,8.31,8.31,0,0,0,2.16.91,14.19,14.19,0,0,1,2.1.82,6.22,6.22,0,0,1,1.51,1,3.89,3.89,0,0,1,.92,1.28,4,4,0,0,1,.31,1.61,3.77,3.77,0,0,1-.38,1.71,3.54,3.54,0,0,1-1.07,1.27,5,5,0,0,1-1.67.79,8,8,0,0,1-2.18.28,8.45,8.45,0,0,1-1.44-.12,6.93,6.93,0,0,1-1.38-.39,6,6,0,0,1-1.22-.65,4.46,4.46,0,0,1-1-.92,4.16,4.16,0,0,1-.65-1.21,4.54,4.54,0,0,1-.24-1.5h3a2.68,2.68,0,0,0,.21,1.12,1.9,1.9,0,0,0,.59.75,2.42,2.42,0,0,0,.91.42,5,5,0,0,0,1.18.13,3.64,3.64,0,0,0,1-.13,2.07,2.07,0,0,0,.71-.35,1.36,1.36,0,0,0,.42-.53A1.61,1.61,0,0,0,230.76,34.51Z"/><path class="cls-3" d="M252.36,33.48a6,6,0,0,1-.5,2,4.75,4.75,0,0,1-1.16,1.6,5.32,5.32,0,0,1-1.8,1,7.16,7.16,0,0,1-2.41.38,6.25,6.25,0,0,1-2.52-.49,5.15,5.15,0,0,1-1.89-1.4,6.34,6.34,0,0,1-1.19-2.21,9.49,9.49,0,0,1-.42-2.91v-1a9.24,9.24,0,0,1,.43-2.91,6.45,6.45,0,0,1,1.22-2.21,5.29,5.29,0,0,1,1.91-1.4,6.19,6.19,0,0,1,2.5-.49,7,7,0,0,1,2.41.39A5.18,5.18,0,0,1,250.71,25a4.88,4.88,0,0,1,1.14,1.63,6.86,6.86,0,0,1,.52,2.06h-3a4.6,4.6,0,0,0-.23-1.15,2.25,2.25,0,0,0-.51-.84,2.09,2.09,0,0,0-.85-.52,4,4,0,0,0-1.26-.18,2.55,2.55,0,0,0-2.27,1.11,6.23,6.23,0,0,0-.75,3.43v1a10.57,10.57,0,0,0,.17,2,4.2,4.2,0,0,0,.52,1.42,2.29,2.29,0,0,0,.92.86,3,3,0,0,0,1.37.29,4.16,4.16,0,0,0,1.23-.16,2.08,2.08,0,0,0,1.4-1.3,4,4,0,0,0,.24-1.14Z"/><path class="cls-3" d="M267.66,35.33H262.4l-1,3H258.2l5.42-14.57h2.78l5.46,14.57h-3.19Zm-4.45-2.43h3.64L265,27.45Z"/><path class="cls-3" d="M281.33,35.93h6.38v2.41h-9.38V23.76h3Z"/><path class="cls-3" d="M302.76,35.33H297.5l-1,3h-3.19l5.42-14.57h2.78L307,38.34h-3.19Zm-4.45-2.43H302l-1.83-5.46Z"/><path class="cls-4" d="M334.09,32.94v1.88c0,.32,6.85.85,11.31,1.88,2.15-.5,3.75-1.12,3.75-1.88V32.94c0-.77-1.6-1.38-3.75-1.88-4.46,1-11.31,1.57-11.31,1.88"/><path class="cls-4" d="M334.09,25.41v1.88c0,.32,6.85.85,11.31,1.88,2.15-.5,3.75-1.12,3.75-1.88V25.41c0-.77-1.6-1.38-3.75-1.88-4.46,1-11.31,1.57-11.31,1.88"/><path class="cls-3" d="M334.09,29.17v5.65c0-.47,15.06-1.41,15.06-3.76V25.41c0,2.35-15.06,3.29-15.06,3.76"/><path class="cls-3" d="M334.09,21.64v5.65c0-.47,15.06-1.41,15.06-3.76V17.88c0,2.35-15.06,3.29-15.06,3.76"/><path class="cls-3" d="M334.09,36.7v5.65c0-.47,15.06-1.41,15.06-3.76V32.94c0,2.35-15.06,3.29-15.06,3.76"/></g></g></svg>