<svg xmlns="http://www.w3.org/2000/svg" viewBox="0 0 407.31 60.23"><title>Asset 11</title><g id="Layer_2" data-name="Layer 2"><g id="Layer_2-2" data-name="Layer 2"><rect width="407.31" height="60.23" style="fill:#569740"/><rect width="199.25" height="60.23" style="fill:#bfd63a"/></g><g id="Layer_3" data-name="Layer 3"><path d="M28.21,23.76l4.2,11.17,4.19-11.17h3.27V38.34H37.36v-4.8l.25-6.43-4.3,11.23H31.49L27.2,27.12l.25,6.42v4.8H24.93V23.76Z" style="fill:#fff"/><path d="M56.14,34.94H50.49l-1.18,3.39H46.68l5.51-14.57h2.27L60,38.34H57.33Zm-4.94-2h4.22l-2.11-6Z" style="fill:#fff"/><path d="M66.73,38.34V23.76H71a7,7,0,0,1,2.67.49,5.93,5.93,0,0,1,2.07,1.4,6.34,6.34,0,0,1,1.35,2.19,8.1,8.1,0,0,1,.48,2.86v.72a8.13,8.13,0,0,1-.48,2.86,6.17,6.17,0,0,1-1.35,2.18,6,6,0,0,1-2.11,1.39,7.4,7.4,0,0,1-2.75.49Zm2.53-12.53V36.32h1.65A4.56,4.56,0,0,0,72.72,36,3.35,3.35,0,0,0,74,35a4.25,4.25,0,0,0,.78-1.54,7.46,7.46,0,0,0,.26-2.05v-.74a5.57,5.57,0,0,0-1-3.62,3.66,3.66,0,0,0-3-1.25Z" style="fill:#fff"/><path d="M93.75,31.83h-6v4.48h7v2H85.23V23.76h9.46v2H87.76v4h6Z" style="fill:#fff"/><path d="M123.56,34.73l2.24-11h2.51L125,38.34h-2.42L119.76,27.7l-2.83,10.64H114.5l-3.36-14.57h2.51l2.26,11,2.78-11h2.12Z" style="fill:#fff"/><path d="M137.95,38.34h-2.52V23.76h2.52Z" style="fill:#fff"/><path d="M156.1,25.81h-4.54V38.34H149V25.81h-4.5v-2H156.1Z" style="fill:#fff"/><path d="M174.08,38.34h-2.52V31.86H165v6.48h-2.53V23.76H165v6.07h6.52V23.76h2.52Z" style="fill:#fff"/><path d="M234.65,33.48a6,6,0,0,1-.5,2,4.75,4.75,0,0,1-1.16,1.6,5.32,5.32,0,0,1-1.8,1,7.16,7.16,0,0,1-2.41.38,6.25,6.25,0,0,1-2.52-.49,5.15,5.15,0,0,1-1.89-1.4,6.34,6.34,0,0,1-1.19-2.21,9.49,9.49,0,0,1-.42-2.91v-1a9.24,9.24,0,0,1,.43-2.91,6.45,6.45,0,0,1,1.22-2.21,5.29,5.29,0,0,1,1.91-1.4,6.19,6.19,0,0,1,2.5-.49,7,7,0,0,1,2.41.39A5.18,5.18,0,0,1,233,25a4.88,4.88,0,0,1,1.14,1.63,6.86,6.86,0,0,1,.52,2.06h-3a4.6,4.6,0,0,0-.23-1.15,2.25,2.25,0,0,0-.51-.84,2.09,2.09,0,0,0-.85-.52,4,4,0,0,0-1.26-.18,2.55,2.55,0,0,0-2.27,1.11,6.23,6.23,0,0,0-.75,3.43v1a10.57,10.57,0,0,0,.17,2,4.2,4.2,0,0,0,.52,1.42,2.29,2.29,0,0,0,.92.86,3,3,0,0,0,1.37.29,4.16,4.16,0,0,0,1.23-.16,2.08,2.08,0,0,0,1.4-1.3,4,4,0,0,0,.24-1.14Z" style="fill:#fff"/><path d="M244.73,35.93h6.38v2.41h-9.38V23.76h3Z" style="fill:#fff"/><path d="M269.9,31.38a9.28,9.28,0,0,1-.45,3,6.48,6.48,0,0,1-1.27,2.25,5.51,5.51,0,0,1-2,1.42,6.62,6.62,0,0,1-5,0,5.61,5.61,0,0,1-2-1.42A6.53,6.53,0,0,1,258,34.38a9.11,9.11,0,0,1-.46-3v-.64a9.21,9.21,0,0,1,.46-3,6.62,6.62,0,0,1,1.28-2.26,5.5,5.5,0,0,1,2-1.43,6.61,6.61,0,0,1,5,0,5.5,5.5,0,0,1,2,1.43,6.6,6.6,0,0,1,1.28,2.26,9.21,9.21,0,0,1,.46,3Zm-3-.66a6.13,6.13,0,0,0-.82-3.48,2.9,2.9,0,0,0-4.68,0,6.14,6.14,0,0,0-.82,3.48v.66a8.49,8.49,0,0,0,.21,2,4.5,4.5,0,0,0,.62,1.47,2.69,2.69,0,0,0,1,.9,2.9,2.9,0,0,0,1.35.31,2.64,2.64,0,0,0,2.33-1.2,6.24,6.24,0,0,0,.81-3.49Z" style="fill:#fff"/><path d="M283.06,23.76h3V33.85a5,5,0,0,1-.37,2,4.25,4.25,0,0,1-1,1.48,4.49,4.49,0,0,1-1.55.93,5.72,5.72,0,0,1-1.94.32,6.77,6.77,0,0,1-2-.27,4.22,4.22,0,0,1-1.55-.83,3.78,3.78,0,0,1-1-1.4,5,5,0,0,1-.37-2h3a3.23,3.23,0,0,0,.13,1,1.6,1.6,0,0,0,.38.65,1.39,1.39,0,0,0,.59.35,2.65,2.65,0,0,0,.78.11,1.72,1.72,0,0,0,1.37-.59,2.5,2.5,0,0,0,.51-1.68Z" style="fill:#fff"/><path d="M304.78,23.76v9.62a5.54,5.54,0,0,1-.42,2.23,4.51,4.51,0,0,1-1.16,1.62,4.94,4.94,0,0,1-1.77,1,7.78,7.78,0,0,1-4.48,0,4.94,4.94,0,0,1-1.77-1A4.46,4.46,0,0,1,294,35.61a5.59,5.59,0,0,1-.42-2.23V23.76h3v9.62a2.78,2.78,0,0,0,.69,2.09,3.07,3.07,0,0,0,3.79,0,2.8,2.8,0,0,0,.68-2.09V23.76Z" style="fill:#fff"/><path d="M317.74,33h-2.39v5.33h-3V23.76h5.42A8.26,8.26,0,0,1,320,24a4.74,4.74,0,0,1,1.69.84,3.7,3.7,0,0,1,1.06,1.38,4.58,4.58,0,0,1,.37,1.9A5.27,5.27,0,0,1,323,29.6a3.74,3.74,0,0,1-1.34,2,5.41,5.41,0,0,1-1.08.64l3.15,6v.14h-3.22Zm-2.39-2.43h2.42a3.15,3.15,0,0,0,1-.16,2,2,0,0,0,.74-.44,1.85,1.85,0,0,0,.45-.68,2.49,2.49,0,0,0,.15-.89,2.2,2.2,0,0,0-.58-1.62,2.43,2.43,0,0,0-1.8-.59h-2.41Z" style="fill:#fff"/><path d="M339.3,32h-5.77v3.9h6.77v2.41h-9.77V23.76h9.75V26.2h-6.75v3.47h5.77Z" style="fill:#fff"/><g id="_3e91140ac1bfb9903b91c1b0ca08e3fa" data-name="3e91140ac1bfb9903b91c1b0ca08e3fa"><path d="M382.05,36a9.79,9.79,0,0,1-17.56-4.49,5.18,5.18,0,0,1,1.14-4.61A4.48,4.48,0,0,1,369,25.36h0c.88-.11.94.19.34.62a6.41,6.41,0,0,0,7.7,9.9A9.4,9.4,0,0,0,382.05,36Zm-11.74-9.2a5.16,5.16,0,0,0,.61,7.23c.51-.05.67-1.58,1.16-2.18.32-1,1.42-1.9,1.14-2.91-.46-1-.86-2.41-2-2.87v0C370.83,26.09,370.57,26.46,370.32,26.77Zm3.47,3.83a13,13,0,0,0-1.29,3.78c.18,1.31,2.23.87,3.21.65-1.11-1.22-1.43-2.9-1.89-4.43Zm10.11-2.11a9.86,9.86,0,0,0-9.68-8.19v0A9.82,9.82,0,0,0,366.58,24a5.3,5.3,0,0,1,5.12.24,6.38,6.38,0,0,1,7.16,10.26,5,5,0,0,0,3.6-.8C384.11,32.54,384.2,30.29,383.89,28.49Zm-11.13-3.27c1.42,1.74,1.65,4.1,2.47,6.12.51,1,.85,2.45,2,2.89A5.14,5.14,0,0,0,374.52,25v0A4.71,4.71,0,0,0,372.76,25.22Z" style="fill:#fff"/></g></g></g></svg>